<?xml version="1.0" encoding="utf-8"?><svg xmlns="http://www.w3.org/2000/svg" xmlns:xlink="http://www.w3.org/1999/xlink"><symbol viewBox="0 0 500 500" id="arrow-left"><path d="M250 0L0 250l250 250 250-250L250 0zM120.8 255l129.3-129.3 21.2 21.2L163.2 255l109.7 109.7-21.2 21.2L120.8 255z"/></symbol><symbol viewBox="0 0 500 500" id="arrow-right"><path d="M0 250l250 250 250-250L250 0 0 250zm248.3 135.9l-21.2-21.2L336.8 255 228.7 146.9l21.2-21.2L379.2 255 248.3 385.9z"/></symbol><symbol viewBox="31.4 40.6 420 420" id="contacts-email"><path d="M438.8 451.4s-.1 0 0 0H110c-4.8 0-8.6-3.9-8.6-8.7 0-4.8 3.9-8.6 8.7-8.6h320.1V221.3L242 68.5 88 195c-3.7 3-9.1 2.5-12.2-1.2-3-3.7-2.5-9.1 1.2-12.2l159.5-131c3.2-2.6 7.8-2.6 11 0l196.8 159.8c2 1.6 3.2 4.1 3.2 6.7v225.6c0 2.3-.9 4.5-2.6 6.1-1.6 1.7-3.8 2.6-6.1 2.6z"/><path d="M44.6 451.4c-1.1 0-2.3-.2-3.4-.7-3.2-1.4-5.3-4.5-5.3-8V220.6c0-3.2 1.8-6.1 4.6-7.6s6.2-1.3 8.9.4l130.7 87 58-55.8c3.4-3.2 8.7-3.2 12 0L439 427.9c3.4 3.3 3.5 8.8.2 12.2-3.3 3.4-8.8 3.5-12.2.2L244.2 262.8 50.7 449c-1.7 1.6-3.9 2.4-6.1 2.4zm8.7-214.6v185.7l114.1-109.8-114.1-75.9zm292.9 55.7c-2.7 0-5.3-1.2-7-3.6-2.8-3.9-1.9-9.3 2-12.1l92.6-66.7c3.9-2.8 9.3-1.9 12.1 2 2.8 3.9 1.9 9.3-2 12.1l-92.6 66.7c-1.6 1.1-3.4 1.6-5.1 1.6z"/></symbol><symbol viewBox="31.4 40.6 420 420" id="contacts-location"><path d="M240.7 460.4s-.1 0 0 0c-3.2 0-6.3-1.6-8.1-4.2l-104.3-145c-.4-.6-.8-1.3-1.1-2L83.1 204c-1-2.4-1-5.2 0-7.7l43.2-105.6c1-2.5 2.9-4.4 5.4-5.4l105.2-44.1c2.4-1 5.2-1 7.7 0L350 84.4c2.5 1 4.4 2.9 5.4 5.4L399.5 195c1 2.4 1 5.2 0 7.7l-43.2 105.6c-.3.7-.7 1.5-1.2 2.1l-106.5 146c-1.7 2.5-4.7 4-7.9 4zm-95.5-160l95.5 132.9 97.7-133.9 41.1-100.6-40.9-97.5-97.9-40-97.5 40.9-40 97.9 42 100.3z"/><path d="M241.7 280.2c-1.3 0-2.6-.2-3.8-.7L187.8 259c-2.5-1-4.4-2.9-5.4-5.4l-20.9-49.9c-1-2.4-1-5.2 0-7.7l20.5-50.1c1-2.5 2.9-4.4 5.4-5.4l49.9-20.9c2.4-1 5.2-1 7.7 0l50.1 20.5c2.5 1 4.4 2.9 5.4 5.4l20.9 49.9c1 2.4 1 5.2 0 7.7L300.8 253c-1 2.5-2.9 4.4-5.4 5.4l-49.9 20.9c-1.2.6-2.5.9-3.8.9zM199.2 242l42.4 17.3 42.2-17.7 17.3-42.4-17.6-42.2-42.4-17.3-42.2 17.7-17.3 42.4 17.6 42.2z"/></symbol><symbol viewBox="197.3 -129.8 420 420" id="contacts-tel"><path d="M541.2 283.3h-.7L384.7 272c-2-.1-3.8-.9-5.4-2.1l-100.1-77.3c-.9-.7-1.6-1.5-2.2-2.4l-60.5-91.4c-.9-1.4-1.5-3-1.6-4.7L203-49.5c-.2-2.9.8-5.8 2.9-7.9l62.6-62.7c1.9-1.9 4.4-2.9 7.1-2.9 2.7 0 5.2 1.1 7.1 2.9L379-23.9c1.9 1.9 2.9 4.4 2.9 7.1 0 2.7-1.1 5.2-2.9 7.1L323.2 46c-3.9 3.9-10.2 3.9-14.1 0s-3.9-10.2 0-14.1l48.6-48.7-82.1-82.1-52.3 52.3L234.5 90l58.2 87.9 96.4 74.4L537.4 263l50.1-50.2-83.8-83.7-49.1 49.1c-3.9 3.9-10.2 3.9-14.1 0-3.9-3.9-3.9-10.2 0-14.1l56.1-56.2c1.9-1.9 4.4-2.9 7.1-2.9 2.7 0 5.2 1.1 7.1 2.9l98 97.9c1.9 1.9 2.9 4.4 2.9 7.1 0 2.7-1.1 5.2-2.9 7.1l-60.4 60.5c-2 1.8-4.6 2.8-7.2 2.8zM523.3 63.6h-.3c-5.5-.2-9.9-4.8-9.7-10.3l1.4-46.8-29.3-31.1-46.9-1.4c-5.5-.2-9.9-4.8-9.7-10.3.2-5.5 4.8-9.9 10.3-9.7l51 1.5c2.7.1 5.2 1.2 7 3.1l35 37.1c1.8 1.9 2.8 4.5 2.7 7.2l-1.5 51c-.2 5.4-4.7 9.7-10 9.7z"/><path d="M588.1 81.1h-.3c-5.5-.2-9.9-4.8-9.7-10.3l2.8-95.2-62.5-66.3-95.2-2.8c-5.5-.2-9.9-4.8-9.7-10.3.2-5.5 4.8-9.9 10.3-9.7l99.3 2.9c2.7.1 5.2 1.2 7 3.1l68.2 72.3c1.8 1.9 2.8 4.5 2.7 7.2l-2.9 99.3c-.1 5.5-4.6 9.8-10 9.8z"/></symbol><symbol viewBox="0 0 139.4 44.7" id="dorohovdesign"><path d="M52.2 19.5V8.1H57c3.6 0 6.1 2.1 6.1 5.7 0 3.5-2.6 5.7-6.1 5.7h-4.8zm7.9-5.7c0-1.8-1.1-3.1-3.1-3.1h-1.9v6.2H57c2 0 3.1-1.4 3.1-3.1m4.1 0c0-3.4 2.6-5.9 6.1-5.9 3.5 0 6.1 2.4 6.1 5.9 0 3.5-2.6 5.9-6.1 5.9-3.5 0-6.1-2.4-6.1-5.9m9.2 0c0-1.9-1.2-3.3-3.1-3.3-1.9 0-3.1 1.4-3.1 3.3 0 1.8 1.2 3.3 3.1 3.3 1.9 0 3.1-1.4 3.1-3.3m11 5.7l-1.9-3.8H81v3.8h-2.9V8.1h5.7c2.5 0 3.9 1.7 3.9 3.8 0 2-1.2 3-2.3 3.4l2.3 4.2h-3.3zm.3-7.6c0-.8-.6-1.2-1.4-1.2H81v2.4h2.3c.8 0 1.4-.4 1.4-1.2m4.2 1.9c0-3.4 2.6-5.9 6.1-5.9 3.5 0 6.1 2.4 6.1 5.9 0 3.5-2.6 5.9-6.1 5.9-3.5 0-6.1-2.4-6.1-5.9m9.1 0c0-1.9-1.2-3.3-3.1-3.3-1.9 0-3.1 1.4-3.1 3.3 0 1.8 1.2 3.3 3.1 3.3 1.9 0 3.1-1.4 3.1-3.3m12.4 5.7v-4.6h-4.7v4.6h-3V8.1h3v4.3h4.7V8.1h2.9v11.4zm4.6-5.7c0-3.4 2.6-5.9 6.1-5.9 3.5 0 6.1 2.4 6.1 5.9 0 3.5-2.6 5.9-6.1 5.9-3.5 0-6.1-2.4-6.1-5.9m9.2 0c0-1.9-1.2-3.3-3.1-3.3-1.9 0-3.1 1.4-3.1 3.3 0 1.8 1.2 3.3 3.1 3.3 1.9 0 3.1-1.4 3.1-3.3m7.3 5.7l-4.3-11.4h3.3l2.8 8.2 2.8-8.2h3.3l-4.2 11.4zm-79.3 17V25.1H57c3.6 0 6.1 2.1 6.1 5.7 0 3.5-2.6 5.7-6.1 5.7h-4.8zm7.9-5.7c0-1.8-1.1-3.1-3.1-3.1h-1.9v6.2H57c2 0 3.1-1.4 3.1-3.1m4.7 5.7V25.1h8.3v2.6h-5.3v1.8H73V32h-5.2v1.9h5.3v2.6zm9.6-1.6l1.5-2.2c.8.8 2.1 1.5 3.6 1.5 1 0 1.6-.4 1.6-.9 0-1.5-6.4-.3-6.4-4.7 0-1.9 1.6-3.6 4.5-3.6 1.8 0 3.4.5 4.6 1.6l-1.6 2.1c-1-.8-2.2-1.2-3.3-1.2-.8 0-1.2.3-1.2.8 0 1.4 6.4.4 6.4 4.6 0 2.3-1.7 3.8-4.7 3.8-2.2 0-3.8-.7-5-1.8m11.5-9.8h2.9v11.3h-2.9zm4.7 5.7c0-3.6 2.8-5.9 6.1-5.9 2.5 0 4.1 1.3 4.8 2.8L99.1 29c-.4-.7-1.3-1.4-2.4-1.4-1.9 0-3.2 1.4-3.2 3.3s1.3 3.3 3.2 3.3c.8 0 1.7-.3 2.1-.7v-.9h-2.6V30h5.5v4.5c-1.2 1.3-2.9 2.2-5 2.2-3.4 0-6.1-2.3-6.1-5.9m20.9 5.7l-4.8-6.6v6.6h-2.9V25.1h3l4.6 6.3v-6.3h2.9v11.4zM17.7 0H0v44.7h17.8c15 0 24.6-8.8 24.6-22.4C42.4 8.7 32.7 0 17.7 0m-.4 35.7h-8V9.5h8c9.3 0 15.7 3.7 15.7 12.7.1 7.5-5.8 13.5-15.7 13.5"/><path d="M19.1 17H17v10.6h2c4 0 6.4-2.4 6.4-5.4 0-3.7-2.6-5.2-6.3-5.2"/></symbol><symbol viewBox="0 0 96.124 96.123" id="fb"><path d="M72.089.02L59.624 0C45.62 0 36.57 9.285 36.57 23.656v10.907H24.037a1.96 1.96 0 0 0-1.96 1.961v15.803a1.96 1.96 0 0 0 1.96 1.96H36.57v39.876a1.96 1.96 0 0 0 1.96 1.96h16.352a1.96 1.96 0 0 0 1.96-1.96V54.287h14.654a1.96 1.96 0 0 0 1.96-1.96l.006-15.803a1.963 1.963 0 0 0-1.961-1.961H56.842v-9.246c0-4.444 1.059-6.7 6.848-6.7l8.397-.003a1.96 1.96 0 0 0 1.959-1.96V1.98A1.96 1.96 0 0 0 72.089.02z"/></symbol><symbol viewBox="0 0 451.847 451.847" id="filter-select"><path d="M225.923 354.706c-8.098 0-16.195-3.092-22.369-9.263L9.27 151.157c-12.359-12.359-12.359-32.397 0-44.751 12.354-12.354 32.388-12.354 44.748 0l171.905 171.915 171.906-171.909c12.359-12.354 32.391-12.354 44.744 0 12.365 12.354 12.365 32.392 0 44.751L248.292 345.449c-6.177 6.172-14.274 9.257-22.369 9.257z"/></symbol><symbol viewBox="0 0 97.395 97.395" id="inst"><path d="M12.501 0h72.393c6.875 0 12.5 5.09 12.5 12.5v72.395c0 7.41-5.625 12.5-12.5 12.5H12.501C5.624 97.395 0 92.305 0 84.895V12.5C0 5.09 5.624 0 12.501 0zm58.447 10.821a4.395 4.395 0 0 0-4.383 4.385v10.495a4.396 4.396 0 0 0 4.383 4.385h11.008a4.398 4.398 0 0 0 4.385-4.385V15.206a4.397 4.397 0 0 0-4.385-4.385H70.948zm15.439 30.367h-8.572a28.486 28.486 0 0 1 1.25 8.355c0 16.2-13.556 29.332-30.275 29.332-16.718 0-30.272-13.132-30.272-29.332 0-2.904.438-5.708 1.25-8.355h-8.945v41.141a3.884 3.884 0 0 0 3.872 3.872h67.822a3.883 3.883 0 0 0 3.872-3.872V41.188h-.002zM48.789 29.533c-10.802 0-19.56 8.485-19.56 18.953s8.758 18.953 19.56 18.953c10.803 0 19.562-8.485 19.562-18.953s-8.758-18.953-19.562-18.953z"/></symbol><symbol viewBox="0 0 370.7 141.6" id="logotip"><path fill-rule="evenodd" clip-rule="evenodd" fill="#BA8340" d="M192.2 50.4l27.3 28.2h-7.3l-23.6-24.7-8.3 8.1v16.6H175V24.4h5.3v30.8L211 24.4h7.4l-26.2 26zm113.4-10.6l-21.2 38.6h-2.6l-21.3-38.6v38.9h-5.2V24.4h3L283 70.1l24.9-45.8h3v54.2h-5.3V39.8zM233 24.4h5.1v54.2H233V24.4zm123.6 36.4h-23.3l-7.7 17.7h-5.5l.4-1 22.8-52.8.2-.4h2.9l.2.4 22.8 52.8.4 1h-5.5l-7.7-17.7zm-2.2-5l-9.4-22-9.3 21.9h18.7zm12.3 38.7c1.3.8 2.3 1.9 3 3.2l.3.5-2 .8-.2-.3c-.6-.9-1.2-1.7-2-2.2-.8-.5-1.9-.8-3.4-.8-1.4 0-2.6.4-3.4 1-.8.6-1.3 1.5-1.3 2.5 0 .9.2 1.6.8 2.3.6.7 1.7 1.3 3.4 1.9l1.7.6c2.2.8 3.9 1.6 5.1 2.6 1.3 1.1 2 2.5 2 4.4 0 1.9-.9 3.5-2.3 4.6-1.5 1.2-3.6 1.9-5.7 1.9-2 0-3.9-.6-5.5-1.7-1.5-1-2.6-2.5-3.1-4.3l-.1-.5 2.1-.5.1.4c.4 1.3 1.2 2.4 2.4 3.2 1.1.8 2.6 1.3 4.1 1.3 1.5 0 3-.5 4.2-1.4.9-.7 1.6-1.7 1.6-3 0-1.2-.5-2.2-1.3-2.9-.9-.8-2.2-1.4-3.7-2l-2.4-.8c-2.1-.7-3.5-1.6-4.3-2.5-.9-1-1.2-2.2-1.2-3.5 0-1.6.8-3 2-4s2.9-1.6 4.8-1.6c1.7-.3 3.1.1 4.3.8m-20.1 20.4c.2.2.5.2 1 .2s1-.1 1.4-.2c.5-.1.9-.4 1.4-.6l.7-.3v2.2l-.3.1c-.5.2-1 .5-1.6.6-.6.1-1.2.2-2 .2s-1.6-.2-2.2-.8c-.5-.5-.8-1.2-.8-2.2V95.7h-3v-2.1h3v-3.9h2.2v3.9h4.7v2.1h-4.7v17.9c-.1.7 0 1.1.2 1.3zm-27-17.9c2.2-2.4 5.3-3.6 8-3.6 1.9 0 3.9.5 5.6 1.6 1.6 1 2.9 2.4 3.8 4.2l.2.5-2.1.5-.2-.3c-.8-1.4-1.9-2.5-3.1-3.2-1.4-.8-2.9-1.2-4.3-1.2-2.1 0-4.6 1-6.4 3-1.4 1.6-2.4 3.9-2.4 6.9 0 3 1 5.3 2.4 6.9 1.8 2 4.3 3 6.4 3 1.5 0 3-.4 4.3-1.2 1.2-.7 2.3-1.8 3.1-3.2l.2-.3 2.1.5-.2.5c-.9 1.8-2.2 3.3-3.8 4.2-1.7 1.1-3.7 1.6-5.6 1.6-2.7 0-5.8-1.2-8-3.6-1.8-2-3.1-4.8-3.1-8.4.1-3.7 1.3-6.5 3.1-8.4zm-12.4 1.1c-1.8-1.8-4.1-2.7-6.3-2.7-2.1 0-4.4.9-6.2 2.7-1.4 1.4-2.4 3.4-2.6 6.1h17.7c-.2-2.6-1.2-4.6-2.6-6.1zM293 96.9c2.2-2.4 5.3-3.6 8-3.6 2.8 0 5.8 1.2 8 3.5 1.8 2 3.1 4.8 3.1 8.4v1.1h-19.9c.2 2.6 1.2 4.7 2.6 6.1 1.8 1.8 4.2 2.7 6.3 2.7 1.4 0 2.7-.3 3.9-.8a8.2 8.2 0 0 0 3.2-2.4l.3-.3 1.6 1.3-.3.4c-1.1 1.3-2.4 2.3-3.8 2.9-1.5.7-3.2 1-4.9 1-2.8 0-5.8-1.2-8-3.6-1.8-2-3.1-4.8-3.1-8.4-.1-3.5 1.2-6.3 3-8.3zm-11 18c.2.2.5.2 1 .2s1-.1 1.4-.2c.5-.1.9-.4 1.4-.6l.7-.3v2.2l-.3.1c-.5.2-1 .5-1.6.6-.6.1-1.2.2-2 .2s-1.6-.2-2.2-.8c-.5-.5-.8-1.2-.8-2.2V95.7h-3v-2.1h3v-3.9h2.2v3.9h4.7v2.1h-4.7v17.9c-.1.7 0 1.1.2 1.3zm-12.9-21.3h1.7V117h-2.2V93.6h.5zM247 95.3c1.5-1.1 3.4-1.8 5.8-1.8s4.9.8 6.7 2.8c1.5 1.6 2.4 3.9 2.4 7.1V117h-2.2v-13.8c0-2.5-.7-4.3-1.9-5.6-1.3-1.4-3.1-2.1-5.2-2.1-2 0-3.8.8-5.2 2.1-1.5 1.4-2.6 3.4-3 5.4v14h-2.2V85.9h2.2V98c.7-1 1.5-1.9 2.6-2.7zM219.5 97c2.2-2.4 5.3-3.6 8-3.6 1.9 0 3.9.5 5.6 1.6 1.6 1 2.9 2.4 3.8 4.2l.2.5-2.1.5-.2-.3c-.8-1.4-1.9-2.5-3.1-3.2-1.4-.8-2.9-1.2-4.3-1.2-2.1 0-4.6 1-6.4 3-1.4 1.6-2.4 3.9-2.4 6.9 0 3 1 5.3 2.4 6.9 1.8 2 4.3 3 6.4 3 1.5 0 3-.4 4.3-1.2 1.2-.7 2.3-1.8 3.1-3.2l.2-.3 2.1.5-.2.5c-.9 1.8-2.2 3.3-3.8 4.2-1.7 1.1-3.7 1.6-5.6 1.6-2.7 0-5.8-1.2-8-3.6-1.8-2-3.1-4.8-3.1-8.4 0-3.7 1.2-6.5 3.1-8.4zm-14.6-1.6c1.6-1.2 3.6-2 6.1-2 .3 0 .6 0 .9.1l.8.1v2h-1.8c-2.2 0-4.1.7-5.5 2.2-1.4 1.4-2.4 3.5-2.8 6.2v13h-2.2V93.6h2.2V98c.6-.9 1.4-1.8 2.3-2.6zm-15.2 3c-1.8-2-4.3-2.9-6.5-2.9s-4.7.9-6.5 2.9c-1.5 1.6-2.5 3.9-2.5 6.9 0 3.1 1 5.3 2.5 6.9 1.8 2 4.3 2.9 6.5 2.9s4.6-1 6.4-3c1.5-1.6 2.5-3.9 2.5-6.9.1-2.9-1-5.2-2.4-6.8zm-14.5-1.5c2.2-2.4 5.3-3.6 8.1-3.6 1.9 0 4 .5 5.8 1.7 1.1.7 2.2 1.7 3 2.9v-4.3h2.2V117h-2.2v-4.3c-.9 1.3-2 2.3-3.1 3-1.8 1.1-3.8 1.6-5.7 1.6-2.8 0-5.9-1.2-8.1-3.6-1.8-2-3.1-4.8-3.1-8.4 0-3.6 1.3-6.4 3.1-8.4zm-56.5 22.6L71.9 6.6v132.3l46.8-19.4zm2.5-92.5v87.6l18.1-43.8L121.2 27zM72.8 3.1L119 114.6V22.2l-24-9.9-22.2-9.2zM3.2 68.6l66.5-35.4V2.7L22.3 22.4 3.2 68.6zm66.5 39.7L3.2 73l19.2 46.3 47.4 19.6v-30.6zm0-72.6l-66 35 66 35v-70zm1.6 105.8c-.1.1-.3.1-.5.1s-.3 0-.5-.1l-49.2-20.4c-.3-.1-.5-.3-.6-.6L.1 71.2c-.1-.2-.1-.5 0-.8l20.4-49.3c.1-.3.3-.5.6-.6L70.3.1c.2-.1.3-.1.5-.1s.4 0 .5.1l49.1 20.3c.3.1.6.4.7.7l20.4 49.2-20.4 49.2-49.8 22z"/></symbol><symbol viewBox="0 0 41.756 41.756" id="modal-close"><path d="M27.948 20.878L40.291 8.536a5 5 0 1 0-7.07-7.071L20.878 13.809 8.535 1.465a5 5 0 0 0-7.07 7.071l12.342 12.342L1.465 33.22a5 5 0 1 0 7.07 7.071l12.343-12.342 12.343 12.343c.976.977 2.256 1.464 3.535 1.464s2.56-.487 3.535-1.464a5 5 0 0 0 0-7.071L27.948 20.878z"/></symbol><symbol viewBox="51 -52.2 477.2 477.2" id="owl-next-400"><path d="M167.6 401.9c-5.3 5.3-5.3 13.8 0 19.1 2.6 2.7 6.1 4 9.5 4s6.9-1.4 9.5-4l225.1-225c5.3-5.3 5.3-13.8 0-19.1L186.6-48.2c-5.3-5.3-13.8-5.3-19.1 0s-5.3 13.8 0 19.1L383 186.4 167.6 401.9z"/></symbol><symbol viewBox="0 0 477.175 477.175" id="owl-prev-400"><path d="M145.188 238.575l215.5-215.5c5.3-5.3 5.3-13.8 0-19.1s-13.8-5.3-19.1 0l-225.1 225.1c-5.3 5.3-5.3 13.8 0 19.1l225.1 225c2.6 2.6 6.1 4 9.5 4s6.9-1.3 9.5-4c5.3-5.3 5.3-13.8 0-19.1l-215.4-215.5z"/></symbol><symbol viewBox="0 0 304.36 304.36" id="vk"><path d="M261.945 175.576c10.096 9.857 20.752 19.131 29.807 29.982 4 4.822 7.787 9.798 10.684 15.394 4.105 7.955.387 16.709-6.746 17.184l-44.34-.02c-11.436.949-20.559-3.655-28.23-11.474-6.139-6.253-11.824-12.908-17.727-19.372-2.42-2.642-4.953-5.128-7.979-7.093-6.053-3.929-11.307-2.726-14.766 3.587-3.523 6.421-4.322 13.531-4.668 20.687-.475 10.441-3.631 13.186-14.119 13.664-22.414 1.057-43.686-2.334-63.447-13.641-17.422-9.968-30.932-24.04-42.691-39.971-22.895-31.021-40.428-65.108-56.186-100.15C-2.01 76.458.584 72.22 9.295 72.07c14.465-.281 28.928-.261 43.41-.02 5.879.086 9.771 3.458 12.041 9.012 7.826 19.243 17.402 37.551 29.422 54.521 3.201 4.518 6.465 9.036 11.113 12.216 5.142 3.521 9.057 2.354 11.476-3.374 1.535-3.632 2.207-7.544 2.553-11.434 1.146-13.383 1.297-26.743-.713-40.079-1.234-8.323-5.922-13.711-14.227-15.286-4.238-.803-3.607-2.38-1.555-4.799 3.564-4.172 6.916-6.769 13.598-6.769h50.111c7.889 1.557 9.641 5.101 10.721 13.039l.043 55.663c-.086 3.073 1.535 12.192 7.07 14.226 4.43 1.448 7.35-2.096 10.008-4.905 11.998-12.734 20.561-27.783 28.211-43.366 3.395-6.852 6.314-13.968 9.143-21.078 2.096-5.276 5.385-7.872 11.328-7.757l48.229.043c1.43 0 2.877.021 4.262.258 8.127 1.385 10.354 4.881 7.844 12.817-3.955 12.451-11.65 22.827-19.174 33.251-8.043 11.129-16.645 21.877-24.621 33.072-7.328 10.223-6.746 15.376 2.357 24.255zm0 0" fill-rule="evenodd" clip-rule="evenodd"/></symbol></svg>