<svg version="1" xmlns="http://www.w3.org/2000/svg" width="348" height="348" viewBox="0 0 261.000000 261.000000"><path d="M126.5 1.5c-1.6.8-20.1 8.4-41 17s-39.4 16.2-41.2 17c-1.7.8-3.5 1.5-4.1 1.5-1 0-2.2 2.6-10.8 24-3 7.4-6.1 14.8-6.8 16.5-.8 1.6-3.7 8.6-6.5 15.5s-5.7 13.8-6.5 15.5c-.7 1.6-2.2 5-3.2 7.5-.9 2.5-2.6 6.5-3.6 8.8-2.2 5-2.4 4.2 5 21.8 2.8 6.5 8.5 20.2 12.7 30.4 4.2 10.2 8 19.4 8.5 20.5.5 1.1 3 7 5.5 13.2 3.5 8.4 5.2 11.4 6.8 11.9 1.2.4 4 1.5 6.2 2.5 2.2.9 10.8 4.5 19 7.9 8.3 3.3 15.9 6.5 17 7 1.1.5 7 3 13 5.4 6.1 2.4 15.9 6.5 21.8 9 6 2.5 11.7 4.6 12.6 4.6 1.8 0 10.1-3.1 21.6-8.1 1.1-.5 17.3-7.2 36-14.9 18.6-7.7 34.2-14.3 34.5-14.8.4-.4 1.9-3.6 3.4-7.2s3.1-7.4 3.6-8.5c.5-1.1 2.5-5.8 4.4-10.5 1.9-4.7 7.5-18.4 12.6-30.5 5-12.1 10.3-24.9 11.7-28.4l2.6-6.3-3.3-8.2c-5.3-13.2-14.9-36.2-17-41.1-1.4-3-8.2-19.5-13.1-31.8-3.5-8.6-4.9-11.1-6.9-11.9-1.4-.5-3.8-1.6-5.5-2.3-1.6-.8-7.5-3.2-13-5.4s-14.9-6.1-21-8.6c-6-2.6-12.6-5.3-14.5-6-3.5-1.3-16.8-6.8-20.5-8.5-6.1-2.8-14.6-6-15.7-6-.7 0-2.6.7-4.3 1.5zm2.5 31.4v27.9l-10.7 5.8c-6 3.1-14.6 7.7-19.3 10.2-4.7 2.4-15 7.9-23 12.2-8 4.2-19 10.1-24.5 13-5.5 2.9-13.1 6.9-17 9-18.1 9.7-26.7 14.1-27 13.8-.1-.2 1.2-3.7 3-7.8s9.4-22.5 17-40.7C35.1 58 41.8 42.4 42.4 41.7c.6-.8 6.3-3.6 12.6-6.2s16.9-7 23.5-9.7c6.6-2.7 15.8-6.5 20.5-8.4 4.7-2 9.4-3.9 10.5-4.5 1.5-.7 17.8-7.3 19.3-7.8.1-.1.2 12.5.2 27.8zm13.2-24.3c3.5 1.4 7.2 3 8.3 3.4 7.3 3.1 17.3 7.2 19 7.9 1.1.5 4.3 1.8 7 2.9 2.8 1.2 9.5 4 15 6.2 11 4.5 20.3 8.5 25.1 10.7l3.1 1.4v84c0 46.3-.4 83.4-.8 82.7-.7-1.2-11.3-26.7-20.4-48.8-1.2-3-3.8-9.3-5.8-14-1.9-4.7-8.9-21.8-15.6-38-6.7-16.2-12.8-30.9-13.6-32.5-.8-1.7-3-6.8-4.9-11.5-1.9-4.7-5.7-14.1-8.6-21-2.8-6.9-6.7-16.3-8.6-21-3-7.3-4-9.7-6.2-14.3-.5-1.1.2-.9 7 1.9zM138.5 25c2.6 6.3 5.3 12.8 6 14.5.8 1.6 7.5 17.8 15 36 7.5 18.1 14.2 34.3 15 36 .7 1.6 2.1 5 3.1 7.5 1.6 4.3 9.5 23.3 11.4 27.5.5 1.1 2.8 6.5 5 12 9.4 23 17.1 41.6 20.9 50.5 2.2 5.2 3.7 9.8 3.3 10.1-.4.3-5.4 2.5-11.2 4.9-5.8 2.3-15.7 6.4-22 9-21.7 9.1-50.9 21-51.5 21-.3 0-.5-54.3-.5-120.7 0-66.3.2-120.4.4-120.2.2.2 2.5 5.6 5.1 11.9zm93 43c2 4.7 3.8 9.2 4 10 .3.8 5.2 12.8 11 26.6l10.5 25.2-9.1 21.8c-4.9 12.1-9.6 23.2-10.3 24.9-.8 1.6-4 9.3-7.1 17-3.2 7.7-5.9 14.2-6.1 14.4-.2.2-.4-34.9-.3-78 0-88.6-.8-81.4 7.4-61.9zM129 130.1c0 51.2-.3 63.9-1.2 63.2-.7-.6-6.7-3.8-13.3-7.3-6.6-3.5-14.7-7.7-18-9.5-3.3-1.8-10.9-5.8-17-9-14.6-7.7-26.9-14.2-33-17.5-2.7-1.5-10.6-5.7-17.5-9.3-6.9-3.6-14.4-7.6-16.7-8.9l-4.1-2.4 5.6-2.9c6.7-3.5 26.4-13.9 37.7-20 4.4-2.3 12.9-6.8 18.9-10 6-3.1 13.4-7 16.5-8.7 3-1.6 10.9-5.8 17.5-9.3 6.7-3.5 14.6-7.7 17.6-9.4 3-1.6 5.8-3 6.3-3 .4-.1.7 28.8.7 64zm-90 20.6c5.5 3 17.2 9.2 34.8 18.4 19.8 10.5 28.9 15.3 33.7 17.9 2.8 1.5 8.7 4.7 13.3 7.1l8.2 4.4v27.7c0 15.3-.2 27.8-.4 27.8s-19-7.7-41.8-17.1c-22.7-9.4-42-17.3-42.9-17.6-1-.3-3.3-4.4-5.4-9.6-6.3-15.4-11.6-28.1-12.5-30.2-1.1-2.5-3.3-7.6-7.6-18.5-1.9-4.7-4.1-9.9-4.9-11.5-.7-1.7-1.8-4.1-2.3-5.5-.6-1.4-1.7-4.2-2.6-6.3L7 134l13.2 6.9c7.3 3.8 15.8 8.2 18.8 9.8z"/></svg>