<?xml version="1.0" encoding="utf-8"?>
<!-- Generator: Adobe Illustrator 19.0.0, SVG Export Plug-In . SVG Version: 6.00 Build 0)  -->
<svg version="1.1" id="Layer_1" xmlns="http://www.w3.org/2000/svg" xmlns:xlink="http://www.w3.org/1999/xlink" x="0px" y="0px"
	 viewBox="31.4 40.6 420 420" style="enable-background:new 31.4 40.6 420 420;" xml:space="preserve">
<path d="M240.7,460.4C240.7,460.4,240.6,460.4,240.7,460.4c-3.2,0-6.3-1.6-8.1-4.2L128.3,311.2c-0.4-0.6-0.8-1.3-1.1-2L83.1,204
	c-1-2.4-1-5.2,0-7.7l43.2-105.6c1-2.5,2.9-4.4,5.4-5.4l105.2-44.1c2.4-1,5.2-1,7.7,0L350,84.4c2.5,1,4.4,2.9,5.4,5.4l44.1,105.2
	c1,2.4,1,5.2,0,7.7l-43.2,105.6c-0.3,0.7-0.7,1.5-1.2,2.1l-106.5,146C246.9,458.9,243.9,460.4,240.7,460.4z M145.2,300.4l95.5,132.9
	l97.7-133.9l41.1-100.6l-40.9-97.5l-97.9-40l-97.5,40.9l-40,97.9L145.2,300.4z"/>
<path d="M241.7,280.2c-1.3,0-2.6-0.2-3.8-0.7l-50.1-20.5c-2.5-1-4.4-2.9-5.4-5.4l-20.9-49.9c-1-2.4-1-5.2,0-7.7l20.5-50.1
	c1-2.5,2.9-4.4,5.4-5.4l49.9-20.9c2.4-1,5.2-1,7.7,0l50.1,20.5c2.5,1,4.4,2.9,5.4,5.4l20.9,49.9c1,2.4,1,5.2,0,7.7L300.8,253
	c-1,2.5-2.9,4.4-5.4,5.4l-49.9,20.9C244.3,279.9,243,280.2,241.7,280.2z M199.2,242l42.4,17.3l42.2-17.7l17.3-42.4L283.5,157
	l-42.4-17.3l-42.2,17.7l-17.3,42.4L199.2,242z"/>
</svg>
