<?xml version="1.0" encoding="utf-8"?>
<!-- Generator: Adobe Illustrator 19.0.0, SVG Export Plug-In . SVG Version: 6.00 Build 0)  -->
<svg version="1.1" id="Layer_1" xmlns="http://www.w3.org/2000/svg" xmlns:xlink="http://www.w3.org/1999/xlink" x="0px" y="0px"
	 viewBox="31.4 40.6 420 420" style="enable-background:new 31.4 40.6 420 420;" xml:space="preserve">
<path d="M438.8,451.4C438.8,451.4,438.7,451.4,438.8,451.4l-328.8,0c-4.8,0-8.6-3.9-8.6-8.7c0-4.8,3.9-8.6,8.7-8.6c0,0,0,0,0.1,0
	l320,0V221.3L242,68.5L88,195c-3.7,3-9.1,2.5-12.2-1.2c-3-3.7-2.5-9.1,1.2-12.2L236.5,50.6c3.2-2.6,7.8-2.6,11,0l196.8,159.8
	c2,1.6,3.2,4.1,3.2,6.7v225.6c0,2.3-0.9,4.5-2.6,6.1C443.3,450.5,441.1,451.4,438.8,451.4z"/>
<path d="M44.6,451.4c-1.1,0-2.3-0.2-3.4-0.7c-3.2-1.4-5.3-4.5-5.3-8V220.6c0-3.2,1.8-6.1,4.6-7.6c2.8-1.5,6.2-1.3,8.9,0.4l130.7,87
	l58-55.8c3.4-3.2,8.7-3.2,12,0L439,427.9c3.4,3.3,3.5,8.8,0.2,12.2c-3.3,3.4-8.8,3.5-12.2,0.2L244.2,262.8L50.7,449
	C49,450.6,46.8,451.4,44.6,451.4z M53.3,236.8v185.7l114.1-109.8L53.3,236.8z"/>
<path d="M346.2,292.5c-2.7,0-5.3-1.2-7-3.6c-2.8-3.9-1.9-9.3,2-12.1l92.6-66.7c3.9-2.8,9.3-1.9,12.1,2c2.8,3.9,1.9,9.3-2,12.1
	l-92.6,66.7C349.7,292,347.9,292.5,346.2,292.5z"/>
</svg>
