<?xml version="1.0" encoding="utf-8"?>
<!-- Generator: Adobe Illustrator 19.0.0, SVG Export Plug-In . SVG Version: 6.00 Build 0)  -->
<svg version="1.1" id="Capa_1" xmlns="http://www.w3.org/2000/svg" xmlns:xlink="http://www.w3.org/1999/xlink" x="0px" y="0px"
	 viewBox="197.3 -129.8 420 420" style="enable-background:new 197.3 -129.8 420 420;" xml:space="preserve">
<path d="M541.2,283.3c-0.2,0-0.5,0-0.7,0L384.7,272c-2-0.1-3.8-0.9-5.4-2.1l-100.1-77.3c-0.9-0.7-1.6-1.5-2.2-2.4l-60.5-91.4
	c-0.9-1.4-1.5-3-1.6-4.7L203-49.5c-0.2-2.9,0.8-5.8,2.9-7.9l62.6-62.7c1.9-1.9,4.4-2.9,7.1-2.9c0,0,0,0,0,0c2.7,0,5.2,1.1,7.1,2.9
	l96.3,96.2c1.9,1.9,2.9,4.4,2.9,7.1c0,2.7-1.1,5.2-2.9,7.1L323.2,46c-3.9,3.9-10.2,3.9-14.1,0s-3.9-10.2,0-14.1l48.6-48.7
	l-82.1-82.1l-52.3,52.3L234.5,90l58.2,87.9l96.4,74.4L537.4,263l50.1-50.2l-83.8-83.7l-49.1,49.1c-3.9,3.9-10.2,3.9-14.1,0
	c-3.9-3.9-3.9-10.2,0-14.1l56.1-56.2c1.9-1.9,4.4-2.9,7.1-2.9c0,0,0,0,0,0c2.7,0,5.2,1.1,7.1,2.9l98,97.9c1.9,1.9,2.9,4.4,2.9,7.1
	c0,2.7-1.1,5.2-2.9,7.1l-60.4,60.5C546.4,282.3,543.8,283.3,541.2,283.3z"/>
<path d="M523.3,63.6c-0.1,0-0.2,0-0.3,0c-5.5-0.2-9.9-4.8-9.7-10.3l1.4-46.8l-29.3-31.1L438.5-26c-5.5-0.2-9.9-4.8-9.7-10.3
	c0.2-5.5,4.8-9.9,10.3-9.7l51,1.5c2.7,0.1,5.2,1.2,7,3.1l35,37.1c1.8,1.9,2.8,4.5,2.7,7.2l-1.5,51C533.1,59.3,528.6,63.6,523.3,63.6
	z"/>
<path d="M588.1,81.1c-0.1,0-0.2,0-0.3,0c-5.5-0.2-9.9-4.8-9.7-10.3l2.8-95.2l-62.5-66.3l-95.2-2.8c-5.5-0.2-9.9-4.8-9.7-10.3
	c0.2-5.5,4.8-9.9,10.3-9.7l99.3,2.9c2.7,0.1,5.2,1.2,7,3.1l68.2,72.3c1.8,1.9,2.8,4.5,2.7,7.2l-2.9,99.3
	C598,76.8,593.5,81.1,588.1,81.1z"/>
</svg>
