<?xml version="1.0" encoding="utf-8"?>
<!-- Generator: Adobe Illustrator 19.0.0, SVG Export Plug-In . SVG Version: 6.00 Build 0)  -->
<svg version="1.1" id="Слой_1" xmlns="http://www.w3.org/2000/svg" xmlns:xlink="http://www.w3.org/1999/xlink" x="0px" y="0px"
	 viewBox="0 0 370.7 141.6" enable-background="new 0 0 370.7 141.6" xml:space="preserve">
<path fill-rule="evenodd" clip-rule="evenodd" fill="#BA8340" d="M192.2,50.4l27.3,28.2h-7.3l-23.6-24.7l-8.3,8.1v16.6H175V24.4h5.3
	v30.8L211,24.4h7.4L192.2,50.4z M305.6,39.8l-21.2,38.6h-2.6l-21.3-38.6v38.9h-5.2V24.4h3L283,70.1l24.9-45.8h3v54.2h-5.3V39.8z
	 M233,24.4h5.1v54.2H233V24.4z M356.6,60.8h-23.3l-7.7,17.7h-5.5l0.4-1c7.6-17.6,15.2-35.2,22.8-52.8l0.2-0.4h2.9l0.2,0.4
	c7.6,17.6,15.2,35.2,22.8,52.8l0.4,1h-5.5L356.6,60.8z M354.4,55.8L345,33.8l-9.3,21.9H354.4z"/>
<path fill-rule="evenodd" clip-rule="evenodd" fill="#BA8340" d="M366.7,94.5c1.3,0.8,2.3,1.9,3,3.2l0.3,0.5l-2,0.8l-0.2-0.3
	c-0.6-0.9-1.2-1.7-2-2.2c-0.8-0.5-1.9-0.8-3.4-0.8c-1.4,0-2.6,0.4-3.4,1c-0.8,0.6-1.3,1.5-1.3,2.5c0,0.9,0.2,1.6,0.8,2.3
	c0.6,0.7,1.7,1.3,3.4,1.9l1.7,0.6c2.2,0.8,3.9,1.6,5.1,2.6c1.3,1.1,2,2.5,2,4.4c0,1.9-0.9,3.5-2.3,4.6c-1.5,1.2-3.6,1.9-5.7,1.9
	c-2,0-3.9-0.6-5.5-1.7c-1.5-1-2.6-2.5-3.1-4.3l-0.1-0.5l2.1-0.5l0.1,0.4c0.4,1.3,1.2,2.4,2.4,3.2c1.1,0.8,2.6,1.3,4.1,1.3
	c1.5,0,3-0.5,4.2-1.4c0.9-0.7,1.6-1.7,1.6-3c0-1.2-0.5-2.2-1.3-2.9c-0.9-0.8-2.2-1.4-3.7-2l-2.4-0.8c-2.1-0.7-3.5-1.6-4.3-2.5
	c-0.9-1-1.2-2.2-1.2-3.5c0-1.6,0.8-3,2-4c1.2-1,2.9-1.6,4.8-1.6C364.1,93.4,365.5,93.8,366.7,94.5 M346.6,114.9
	c0.2,0.2,0.5,0.2,1,0.2c0.5,0,1-0.1,1.4-0.2c0.5-0.1,0.9-0.4,1.4-0.6l0.7-0.3v2.2l-0.3,0.1c-0.5,0.2-1,0.5-1.6,0.6
	c-0.6,0.1-1.2,0.2-2,0.2c-0.8,0-1.6-0.2-2.2-0.8c-0.5-0.5-0.8-1.2-0.8-2.2V95.7h-3v-2.1h3v-3.9h2.2v3.9h4.7v2.1h-4.7v17.9
	C346.3,114.3,346.4,114.7,346.6,114.9z M319.6,97c2.2-2.4,5.3-3.6,8-3.6c1.9,0,3.9,0.5,5.6,1.6c1.6,1,2.9,2.4,3.8,4.2l0.2,0.5
	l-2.1,0.5l-0.2-0.3c-0.8-1.4-1.9-2.5-3.1-3.2c-1.4-0.8-2.9-1.2-4.3-1.2c-2.1,0-4.6,1-6.4,3c-1.4,1.6-2.4,3.9-2.4,6.9
	c0,3,1,5.3,2.4,6.9c1.8,2,4.3,3,6.4,3c1.5,0,3-0.4,4.3-1.2c1.2-0.7,2.3-1.8,3.1-3.2l0.2-0.3l2.1,0.5l-0.2,0.5
	c-0.9,1.8-2.2,3.3-3.8,4.2c-1.7,1.1-3.7,1.6-5.6,1.6c-2.7,0-5.8-1.2-8-3.6c-1.8-2-3.1-4.8-3.1-8.4C316.6,101.7,317.8,98.9,319.6,97z
	 M307.2,98.1c-1.8-1.8-4.1-2.7-6.3-2.7c-2.1,0-4.4,0.9-6.2,2.7c-1.4,1.4-2.4,3.4-2.6,6.1h17.7C309.6,101.6,308.6,99.6,307.2,98.1z
	 M293,96.9c2.2-2.4,5.3-3.6,8-3.6c2.8,0,5.8,1.2,8,3.5c1.8,2,3.1,4.8,3.1,8.4c0,0.2,0,0.3,0,0.4c0,0.1,0,0.1,0,0.2v0.5h-19.9
	c0.2,2.6,1.2,4.7,2.6,6.1c1.8,1.8,4.2,2.7,6.3,2.7c1.4,0,2.7-0.3,3.9-0.8c1.2-0.5,2.3-1.3,3.2-2.4l0.3-0.3l1.6,1.3l-0.3,0.4
	c-1.1,1.3-2.4,2.3-3.8,2.9c-1.5,0.7-3.2,1-4.9,1c-2.8,0-5.8-1.2-8-3.6c-1.8-2-3.1-4.8-3.1-8.4C289.9,101.7,291.2,98.9,293,96.9z
	 M282,114.9c0.2,0.2,0.5,0.2,1,0.2c0.5,0,1-0.1,1.4-0.2c0.5-0.1,0.9-0.4,1.4-0.6l0.7-0.3v2.2l-0.3,0.1c-0.5,0.2-1,0.5-1.6,0.6
	c-0.6,0.1-1.2,0.2-2,0.2c-0.8,0-1.6-0.2-2.2-0.8c-0.5-0.5-0.8-1.2-0.8-2.2V95.7h-3v-2.1h3v-3.9h2.2v3.9h4.7v2.1h-4.7v17.9
	C281.7,114.3,281.8,114.7,282,114.9z M269.1,93.6h1.7V117h-2.2V93.6H269.1z M247,95.3c1.5-1.1,3.4-1.8,5.8-1.8
	c2.4,0,4.9,0.8,6.7,2.8c1.5,1.6,2.4,3.9,2.4,7.1V117h-2.2v-13.8c0-2.5-0.7-4.3-1.9-5.6c-1.3-1.4-3.1-2.1-5.2-2.1
	c-2,0-3.8,0.8-5.2,2.1c-1.5,1.4-2.6,3.4-3,5.4v14h-2.2V85.9h2.2v12.1C245.1,97,245.9,96.1,247,95.3z M219.5,97
	c2.2-2.4,5.3-3.6,8-3.6c1.9,0,3.9,0.5,5.6,1.6c1.6,1,2.9,2.4,3.8,4.2l0.2,0.5l-2.1,0.5l-0.2-0.3c-0.8-1.4-1.9-2.5-3.1-3.2
	c-1.4-0.8-2.9-1.2-4.3-1.2c-2.1,0-4.6,1-6.4,3c-1.4,1.6-2.4,3.9-2.4,6.9c0,3,1,5.3,2.4,6.9c1.8,2,4.3,3,6.4,3c1.5,0,3-0.4,4.3-1.2
	c1.2-0.7,2.3-1.8,3.1-3.2l0.2-0.3l2.1,0.5l-0.2,0.5c-0.9,1.8-2.2,3.3-3.8,4.2c-1.7,1.1-3.7,1.6-5.6,1.6c-2.7,0-5.8-1.2-8-3.6
	c-1.8-2-3.1-4.8-3.1-8.4C216.4,101.7,217.6,98.9,219.5,97z M204.9,95.4c1.6-1.2,3.6-2,6.1-2c0.3,0,0.6,0,0.9,0.1l0.8,0.1v2l-0.5,0
	c-0.4,0-0.8,0-1.3,0c-2.2,0-4.1,0.7-5.5,2.2c-1.4,1.4-2.4,3.5-2.8,6.2V117h-2.2V93.6h2.2V98C203.2,97.1,204,96.2,204.9,95.4z
	 M189.7,98.4c-1.8-2-4.3-2.9-6.5-2.9c-2.2,0-4.7,0.9-6.5,2.9c-1.5,1.6-2.5,3.9-2.5,6.9c0,3.1,1,5.3,2.5,6.9c1.8,2,4.3,2.9,6.5,2.9
	c2.2,0,4.6-1,6.4-3c1.5-1.6,2.5-3.9,2.5-6.9C192.2,102.3,191.1,100,189.7,98.4z M175.2,96.9c2.2-2.4,5.3-3.6,8.1-3.6
	c1.9,0,4,0.5,5.8,1.7c1.1,0.7,2.2,1.7,3,2.9v-4.3h2.2V117h-2.2v-4.3c-0.9,1.3-2,2.3-3.1,3c-1.8,1.1-3.8,1.6-5.7,1.6
	c-2.8,0-5.9-1.2-8.1-3.6c-1.8-2-3.1-4.8-3.1-8.4C172.1,101.7,173.4,98.9,175.2,96.9z"/>
<path fill-rule="evenodd" clip-rule="evenodd" fill="#BA8340" d="M118.7,119.5L71.9,6.6v132.3L118.7,119.5z M121.2,27v87.6
	l18.1-43.8L121.2,27z M72.8,3.1L119,114.6V22.2l-24-9.9L72.8,3.1z M3.2,68.6l66.5-35.4V2.7L22.3,22.4L3.2,68.6z M69.7,108.3L3.2,73
	l19.2,46.3l47.4,19.6V108.3z M69.7,35.7l-66,35l66,35V35.7z M71.3,141.5c-0.1,0.1-0.3,0.1-0.5,0.1c-0.2,0-0.3,0-0.5-0.1l-49.2-20.4
	c-0.3-0.1-0.5-0.3-0.6-0.6L0.1,71.2C0,71,0,70.7,0.1,70.4l20.4-49.3c0.1-0.3,0.3-0.5,0.6-0.6L70.3,0.1C70.5,0,70.6,0,70.8,0
	c0.2,0,0.4,0,0.5,0.1l49.1,20.3c0.3,0.1,0.6,0.4,0.7,0.7l20.4,49.2l0,0l0,0v0l0,0l0,0v0l0,0l0,0v0l0,0l0,0l0,0l0,0l0,0v0l0,0l0,0
	l0,0l0,0l0,0l0,0l0,0l0,0l0,0l0,0l0,0l0,0l0,0l0,0l0,0l0,0l0,0v0l0,0l0,0v0l0,0l0,0v0l0,0l0,0v0l0,0v0v0v0v0v0v0l0,0v0l0,0l0,0v0
	l0,0l0,0l0,0l0,0l0,0l0,0l0,0l0,0l0,0l0,0l0,0l0,0l0,0l0,0l0,0l0,0l0,0l0,0l0,0l0,0l0,0l0,0l0,0l0,0l0,0l0,0l0,0l0,0l0,0l0,0l0,0
	l0,0l0,0l0,0l0,0l0,0l0,0l0,0l0,0l0,0l0,0l-20.4,49.2l0,0l0,0l0,0l0,0l0,0l0,0l0,0l0,0l0,0l0,0l0,0l0,0l0,0l0,0l0,0l0,0l0,0l0,0l0,0
	l0,0l0,0l0,0l0,0l0,0l0,0l0,0l0,0l0,0l0,0l0,0l0,0l0,0l0,0l0,0l0,0l0,0l0,0l0,0l0,0l0,0l0,0l0,0l0,0l0,0l0,0l0,0l0,0l0,0l0,0l0,0
	l0,0l0,0l0,0l0,0l0,0l0,0l0,0l0,0l0,0l0,0l0,0l0,0l0,0l0,0l0,0l0,0l0,0l0,0l0,0l0,0l0,0v0l0,0l0,0l0,0l0,0l0,0l0,0l0,0l0,0l0,0l0,0
	l0,0l0,0l0,0l0,0l0,0l0,0l0,0h0l0,0l0,0l0,0l0,0l0,0l0,0l0,0l0,0l0,0l0,0l0,0l0,0L71.3,141.5z"/>
</svg>
